<svg fill="#ffffff" xmlns="http://www.w3.org/2000/svg" width="31mm" height="9.0mm" viewBox="0 0 31 9.0">
      <path
         id="path890"
         style="font-weight:bold;stroke-width:0.264583"
         d="m 7.6953467,5.9151143 q 0,0.5581037 -0.2273756,0.9973519 Q 7.2457632,7.3517145 6.8530235,7.6411016 6.3982724,7.982165 5.8505039,8.1268585 5.3079031,8.2715521 4.4707476,8.2715521 H 1.1117902 V 0.57695582 h 2.9868883 q 0.9301728,0 1.3590858,0.0620115 0.4340806,0.0620115 0.857826,0.27388422 0.4392483,0.22220796 0.651121,0.59944476 0.2170403,0.3720691 0.2170403,0.8526584 0,0.5581037 -0.2945547,0.9870167 Q 6.5946422,3.7757168 6.057209,4.0134276 v 0.041341 Q 6.8116825,4.2046298 7.2509308,4.6748838 7.6953467,5.1451379 7.6953467,5.9151143 Z M 5.1528743,2.7525267 q 0,-0.1912022 -0.098185,-0.3824044 Q 4.9616721,2.1789201 4.7187937,2.0859028 4.5017533,2.0032208 4.1761929,1.9980532 3.8558,1.9877179 3.2718582,1.9877179 H 3.0858236 v 1.6278025 h 0.3100576 q 0.470254,0 0.8009822,-0.015503 Q 4.5275915,3.5845146 4.7187937,3.4966649 4.9875103,3.3778095 5.0701923,3.191775 5.1528743,3.0005728 5.1528743,2.7525267 Z m 0.4857569,3.1315818 q 0,-0.3669015 -0.1446935,-0.5632713 Q 5.3544118,5.1192998 5.0133484,5.0211148 4.7808052,4.9539357 4.3725627,4.9487681 3.9643202,4.9436004 3.5199043,4.9436004 H 3.0858236 V 6.86079 h 0.1446936 q 0.8371555,0 1.1988894,-0.00517 Q 4.7911404,6.8504547 5.0960304,6.7212641 5.406088,6.5920734 5.5197758,6.3802007 5.6386312,6.1631604 5.6386312,5.8841085 Z" />
      <path
         id="path892"
         style="font-weight:bold;stroke-width:0.264583"
         d="m 16.656011,4.4268378 q 0,1.8396751 -1.054195,2.9248767 -1.054196,1.080034 -2.914542,1.080034 -1.855178,0 -2.9093738,-1.080034 -1.0541959,-1.0852016 -1.0541959,-2.9248767 0,-1.855178 1.0541959,-2.9300444 1.0541958,-1.08003401 2.9093738,-1.08003401 1.85001,0 2.909374,1.08003401 1.059363,1.0748664 1.059363,2.9300444 z m -2.630322,1.9481953 q 0.289388,-0.3513987 0.428913,-0.8268203 0.139526,-0.4805893 0.139526,-1.1265427 0,-0.692462 -0.160196,-1.1782189 Q 14.273735,2.7576943 14.015354,2.457972 13.751805,2.1479144 13.405574,2.0083884 13.064511,1.8688625 12.692442,1.8688625 q -0.377237,0 -0.713133,0.1343583 -0.330728,0.1343583 -0.60978,0.4444159 -0.258381,0.2893871 -0.423745,0.8009822 -0.160197,0.5064274 -0.160197,1.1782189 0,0.6872943 0.155029,1.1730512 0.160197,0.4805893 0.418578,0.7854793 0.258381,0.30489 0.604612,0.4495835 0.346231,0.1446936 0.728636,0.1446936 0.382404,0 0.728635,-0.1446936 0.346231,-0.1498611 0.604612,-0.4599187 z" />
      <path
         id="path894"
         style="font-weight:bold;stroke-width:0.264583"
         d="M 23.714991,8.2715521 H 18.164959 V 0.57695582 h 1.984369 V 6.7832756 h 3.565663 z" />
      <path
         id="path896"
         style="font-weight:bold;stroke-width:0.264583"
         d="M 30.923829,2.0652323 H 28.520883 V 8.2715521 H 26.536514 V 2.0652323 H 24.133568 V 0.57695582 h 6.790261 z" />
</svg>
